<svg width="359" height="182" viewBox="0 0 359 182" fill="none" xmlns="http://www.w3.org/2000/svg">
<g clip-path="url(#clip0_445_498)">
<path d="M1.98752 135.773C44.67 65.3147 217.109 135.964 217.109 135.964C217.109 135.964 364.547 70.2897 358.838 133.873C353.13 197.457 190.997 181.585 133.147 174.068C75.2959 166.551 -14.4967 162.985 1.98752 135.773Z" fill="#E2FFF8"/>
<path d="M125.159 139.035L139.218 133.329L157.801 138.025L140.817 143.474L125.159 139.035Z" fill="#B9E0D8"/>
<path d="M54.283 99.4851L89.2434 106.321V121.766L54.2789 114.047L54.283 99.4851Z" fill="#F2F2F2"/>
<path d="M54.2789 99.4851L158.239 99.5289L189.407 106.952L89.5068 106.995L54.2789 99.4851Z" fill="white"/>
<path d="M189.549 106.887H89.2433V121.766H189.549V106.887Z" fill="#C4C4C4"/>
<path d="M61.6907 85.5291L96.651 92.3645V107.81L61.6866 100.091L61.6907 85.5291Z" fill="#F2F2F2"/>
<path d="M61.6866 77.278L165.646 77.3217L196.815 84.7446L96.9145 84.7883L61.6866 77.278Z" fill="white"/>
<path d="M196.957 84.082H96.6511V107.81H196.957V84.082Z" fill="#C4C4C4"/>
<path d="M61.6907 77.278L96.651 84.1134V99.5588L61.6866 91.8397L61.6907 77.278Z" fill="#F2F2F2"/>
<path d="M56.6842 64.0371L91.6446 69.9741V83.3893L56.6801 76.6849L56.6842 64.0371Z" fill="#F2F2F2"/>
<path d="M56.6801 64.0371L160.64 64.0751L191.808 70.5223L91.9081 70.5603L56.6801 64.0371Z" fill="white"/>
<path d="M191.95 70.4663H91.6445V83.3894H191.95V70.4663Z" fill="#C4C4C4"/>
<path d="M239.419 6.99219H157.801V138.025H239.419V6.99219Z" fill="#D8BB00"/>
<path d="M129.398 0.000488281L158.035 7.04972L239.241 7.00912L235.954 6.21892L232.707 6.22061L213.262 1.90951L213.268 0.768698L210.241 0.0411021L129.398 0.000488281Z" fill="#FFE161"/>
<path d="M164.766 8.27576L193.403 15.325L274.61 15.2844L271.322 14.4942L267.494 14.4959L248.639 10.0252L248.639 9.04397L245.611 8.31638L164.766 8.27576Z" fill="#67F5FA"/>
<path d="M129.398 0H157.988L157.801 138.025L129.507 130.63L129.398 0Z" fill="#FFE161"/>
<path d="M138.726 86.8885L157.976 90.0307L157.801 138.025L139.218 133.329L138.726 86.8885Z" fill="#746400"/>
<path d="M164.767 8.27527H193.251L193.065 146.358L164.875 138.96L164.767 8.27527Z" fill="#67F5FA"/>
<path d="M168.936 9.0741L244.761 9.10586L267.494 14.4951L194.63 14.5269L168.936 9.0741Z" fill="white"/>
<path d="M134.149 0.798828L209.973 0.830592L232.706 6.21987L159.843 6.25163L134.149 0.798828Z" fill="white"/>
<path d="M274.61 15.3251H192.992V146.358H274.61V15.3251Z" fill="#00BDC4"/>
<path d="M167.948 26.3292L167.99 77.327L188.739 82.772L188.808 31.8078C181.857 29.9737 174.901 28.1536 167.948 26.3292Z" fill="#E3E2DB"/>
<path d="M169.236 28.1588L169.273 76.3756L187.459 81.5236L187.519 33.3387C181.427 31.6046 175.331 29.8838 169.236 28.1588Z" fill="white"/>
<path d="M132.469 15.1549L132.512 66.1528L153.26 71.5978L153.329 20.6336C146.378 18.7995 139.423 16.9794 132.469 15.1549Z" fill="#E3E2DB"/>
<path d="M133.757 16.9761L133.795 65.1928L151.98 70.3409L152.041 22.156C145.948 20.4219 139.852 18.701 133.757 16.9761Z" fill="white"/>
<path d="M177.445 136.053C180.011 136.053 182.092 133.414 182.092 130.16C182.092 126.905 180.011 124.267 177.445 124.267C174.878 124.267 172.798 126.905 172.798 130.16C172.798 133.414 174.878 136.053 177.445 136.053Z" fill="#058F95"/>
<path d="M177.472 117.215C180.039 117.215 182.119 114.576 182.119 111.322C182.119 108.067 180.039 105.429 177.472 105.429C174.906 105.429 172.825 108.067 172.825 111.322C172.825 114.576 174.906 117.215 177.472 117.215Z" fill="#058F95"/>
<path d="M177.472 115.955C179.383 115.955 180.932 113.881 180.932 111.322C180.932 108.763 179.383 106.688 177.472 106.688C175.561 106.688 174.012 108.763 174.012 111.322C174.012 113.881 175.561 115.955 177.472 115.955Z" fill="#E3E2DB"/>
<path d="M177.37 134.793C179.281 134.793 180.83 132.719 180.83 130.16C180.83 127.601 179.281 125.526 177.37 125.526C175.459 125.526 173.91 127.601 173.91 130.16C173.91 132.719 175.459 134.793 177.37 134.793Z" fill="#E3E2DB"/>
<path d="M142.753 127.584C145.319 127.584 147.4 124.946 147.4 121.691C147.4 118.437 145.319 115.798 142.753 115.798C140.186 115.798 138.106 118.437 138.106 121.691C138.106 124.946 140.186 127.584 142.753 127.584Z" fill="#917E00"/>
<path d="M142.78 108.747C145.347 108.747 147.427 106.108 147.427 102.854C147.427 99.5989 145.347 96.9606 142.78 96.9606C140.214 96.9606 138.133 99.5989 138.133 102.854C138.133 106.108 140.214 108.747 142.78 108.747Z" fill="#917E00"/>
<path d="M142.78 107.487C144.691 107.487 146.24 105.413 146.24 102.853C146.24 100.294 144.691 98.2198 142.78 98.2198C140.869 98.2198 139.32 100.294 139.32 102.853C139.32 105.413 140.869 107.487 142.78 107.487Z" fill="#E3E2DB"/>
<path d="M142.678 126.325C144.589 126.325 146.138 124.25 146.138 121.691C146.138 119.132 144.589 117.058 142.678 117.058C140.767 117.058 139.218 119.132 139.218 121.691C139.218 124.25 140.767 126.325 142.678 126.325Z" fill="#E3E2DB"/>
<path d="M199.628 132.547L234.589 139.382V154.827L199.624 147.108L199.628 132.547Z" fill="#F2F2F2"/>
<path d="M199.624 132.547L303.584 132.59L334.752 140.013L234.852 140.057L199.624 132.547Z" fill="white"/>
<path d="M334.894 139.949H234.589V154.827H334.894V139.949Z" fill="#C4C4C4"/>
<path d="M208.024 118.28L242.984 125.116V140.561L208.02 132.842L208.024 118.28Z" fill="#F2F2F2"/>
<path d="M208.02 118.28L311.98 118.324L343.148 125.747L243.248 125.791L208.02 118.28Z" fill="white"/>
<path d="M343.29 125.682H242.984V140.561H343.29V125.682Z" fill="#C4C4C4"/>
<path d="M196.961 101.846L231.921 108.681V124.126L196.957 116.407L196.961 101.846Z" fill="#F2F2F2"/>
<path d="M196.957 93.5945L300.917 93.6382L332.085 101.061L232.185 101.105L196.957 93.5945Z" fill="white"/>
<path d="M332.227 100.399H231.921V124.126H332.227V100.399Z" fill="#C4C4C4"/>
<path d="M196.961 93.5945L231.921 100.43V115.875L196.957 108.156L196.961 93.5945Z" fill="#F2F2F2"/>
<path d="M209.332 81.0476L244.292 86.9846V100.4L209.328 93.6954L209.332 81.0476Z" fill="#F2F2F2"/>
<path d="M209.328 81.0476L313.288 81.0856L344.456 87.5328L244.556 87.5708L209.328 81.0476Z" fill="white"/>
<path d="M344.598 87.4768H244.292V100.4H344.598V87.4768Z" fill="#C4C4C4"/>
<path d="M157.007 88.1891C157.787 88.4102 158.219 89.2317 157.976 90.0308L142.167 142.019C141.924 142.818 141.1 143.284 140.32 143.063L116.914 136.428C116.61 136.341 116.359 136.164 116.18 135.932C116.412 136.304 116.8 136.666 117.412 136.839L140.817 143.474C141.597 143.695 142.421 143.23 142.664 142.431L158.473 90.4425C158.716 89.6434 158.846 88.7106 157.3 88.2723L157.007 88.1891ZM115.889 134.844C115.876 134.893 115.87 134.967 115.877 135.059C115.876 134.988 115.88 134.917 115.889 134.844Z" fill="#1A1A1A"/>
<path d="M133.601 81.5541C132.821 81.333 131.997 81.7984 131.754 82.5975L115.945 134.586C115.702 135.385 116.134 136.207 116.914 136.428L140.32 143.063C141.1 143.284 141.924 142.818 142.167 142.019L157.976 90.0307C158.219 89.2317 157.786 88.4102 157.006 88.1891L133.601 81.5541ZM145.282 84.9466C145.594 85.0351 146.689 85.7938 146.627 85.9438C146.626 85.9445 146.624 85.9474 146.624 85.948C146.603 85.9765 146.527 85.9765 146.375 85.9336L156.242 88.7306C156.985 88.9413 157.397 89.7235 157.166 90.4848L142.103 140.018C141.871 140.78 141.087 141.223 140.344 141.012L118.042 134.69C117.299 134.479 116.887 133.697 117.119 132.936L132.182 83.4023C132.413 82.641 133.197 82.1978 133.94 82.4085L143.763 85.193C143.68 85.1694 143.639 85.1446 143.631 85.1218C143.631 85.1211 143.63 85.1169 143.63 85.1162L143.631 85.1115L143.631 85.108C143.681 84.967 144.975 84.8597 145.282 84.9466Z" fill="#333333"/>
<path d="M133.941 82.4086C133.197 82.198 132.413 82.6411 132.182 83.4024L117.119 132.936C116.887 133.697 117.299 134.479 118.042 134.69L140.344 141.012C141.087 141.223 141.871 140.779 142.103 140.018L157.166 90.4848C157.397 89.7234 156.985 88.9413 156.242 88.7306L146.376 85.9336C146.073 85.8479 145.889 86.1544 145.889 86.1544C145.729 86.6813 145.197 86.9956 144.701 86.855C144.205 86.7145 143.933 86.1723 144.093 85.6453C144.135 85.5078 143.967 85.2508 143.763 85.1931L133.941 82.4086Z" fill="white"/>
<path d="M145.282 84.9466C144.975 84.8597 143.681 84.9652 143.631 85.1064C143.631 85.107 143.631 85.1106 143.631 85.1116L143.63 85.1163C143.63 85.1169 143.631 85.1212 143.631 85.1218C143.638 85.1444 143.68 85.1695 143.763 85.1931C143.967 85.2508 144.135 85.5077 144.093 85.6453C143.933 86.1722 144.205 86.7144 144.701 86.855C145.197 86.9956 145.729 86.6813 145.889 86.1544C145.889 86.1544 146.073 85.8479 146.375 85.9336C146.527 85.9765 146.603 85.9768 146.624 85.948C146.624 85.9473 146.626 85.9444 146.627 85.9437C146.689 85.7938 145.594 85.0351 145.282 84.9466Z" fill="#333333"/>
</g>
<defs>
<clipPath id="clip0_445_498">
<rect width="359" height="181.48" fill="white"/>
</clipPath>
</defs>
</svg>
