<svg width="295" height="231" viewBox="0 0 295 231" fill="none" xmlns="http://www.w3.org/2000/svg">
<g clip-path="url(#clip0_449_1319)">
<path d="M4.8573 189.534L68.4211 201.962V230.044L4.84985 216.01L4.8573 189.534Z" fill="#F2F2F2"/>
<path d="M4.84985 189.534L193.866 189.614L250.535 203.11L68.9001 203.19L4.84985 189.534Z" fill="white"/>
<path d="M68.4211 202.992H250.793V230.044H68.4211V202.992Z" fill="#C4C4C4"/>
<path d="M20.1221 163.596L83.6859 176.024V204.106L20.1147 190.071L20.1221 163.596Z" fill="#F2F2F2"/>
<path d="M20.1147 163.596L209.131 163.675L265.8 177.171L84.165 177.251L20.1147 163.596Z" fill="white"/>
<path d="M83.686 177.054H266.058V204.106H83.686V177.054Z" fill="#C4C4C4"/>
<path d="M0.00744899 133.714L63.5712 146.142V174.225L0 160.19L0.00744899 133.714Z" fill="#F2F2F2"/>
<path d="M0 118.713L189.016 118.792L245.685 132.288L64.0503 132.368L0 118.713Z" fill="white"/>
<path d="M63.5713 131.083H245.943V174.225H63.5713V131.083Z" fill="#C4C4C4"/>
<path d="M0.00744899 118.713L63.5712 131.141V159.223L0 145.188L0.00744899 118.713Z" fill="#F2F2F2"/>
<path d="M22.5004 95.9004L86.0641 106.695V131.086L22.4929 118.896L22.5004 95.9004Z" fill="#F2F2F2"/>
<path d="M22.4929 95.9004L211.509 95.9695L268.178 107.692L86.5431 107.761L22.4929 95.9004Z" fill="white"/>
<path d="M86.064 107.59H268.436V131.086H86.064V107.59Z" fill="#C4C4C4"/>
<path d="M146.049 12.7124V230.045H294.443V12.7124H146.049Z" fill="url(#paint0_linear_449_1319)"/>
<path d="M94.4082 0L146.475 12.8167L294.122 12.7428L288.144 11.3061L282.24 11.3092L246.887 3.47091L246.899 1.39674L241.395 0.0738427L94.4082 0Z" fill="#FFE161"/>
<path d="M94.4099 0.000244141L94.6006 230.045H146.08L146.39 0.000244141H94.4099Z" fill="#FFE161"/>
<path d="M103.046 1.45142L240.907 1.50916L282.239 11.3078L149.762 11.3655L103.046 1.45142Z" fill="white"/>
<path d="M99.9919 27.5533L100.069 120.276L137.794 130.176L137.919 37.5144C125.281 34.1796 112.635 30.8704 99.9919 27.5533Z" fill="#E3E2DB"/>
<path d="M102.334 30.8646L102.402 118.53L135.467 127.891L135.576 40.2824C124.5 37.1296 113.415 34.0008 102.334 30.8646Z" fill="white"/>
<path d="M118.69 210.54C116.449 210.541 114.3 211.67 112.716 213.679C111.131 215.689 110.241 218.414 110.241 221.256C110.242 222.982 110.571 224.683 111.2 226.213C111.83 227.743 112.743 229.058 113.859 230.045H123.52C124.636 229.058 125.549 227.743 126.179 226.213C126.808 224.683 127.138 222.982 127.138 221.256C127.138 218.414 126.248 215.689 124.664 213.679C123.079 211.67 120.93 210.541 118.69 210.54Z" fill="#917E00"/>
<path d="M127.188 187.004C127.188 189.846 126.298 192.571 124.714 194.58C123.129 196.59 120.98 197.718 118.739 197.718C116.499 197.718 114.349 196.59 112.765 194.58C111.18 192.571 110.29 189.846 110.29 187.004C110.29 185.597 110.509 184.204 110.933 182.904C111.358 181.604 111.98 180.423 112.765 179.428C113.55 178.433 114.481 177.644 115.506 177.105C116.531 176.567 117.63 176.29 118.739 176.29C119.849 176.29 120.948 176.567 121.973 177.105C122.998 177.644 123.929 178.433 124.714 179.428C125.498 180.423 126.121 181.604 126.545 182.904C126.97 184.204 127.188 185.597 127.188 187.004Z" fill="#917E00"/>
<path d="M125.03 187.004C125.03 189.238 124.368 191.381 123.188 192.961C122.008 194.541 120.408 195.429 118.739 195.429C117.071 195.429 115.471 194.541 114.291 192.961C113.111 191.381 112.448 189.238 112.448 187.004C112.448 185.897 112.611 184.802 112.927 183.78C113.243 182.758 113.707 181.829 114.291 181.047C114.875 180.264 115.569 179.644 116.332 179.22C117.095 178.797 117.913 178.579 118.739 178.579C119.565 178.579 120.384 178.797 121.147 179.22C121.91 179.644 122.604 180.264 123.188 181.047C123.772 181.829 124.235 182.758 124.552 183.78C124.868 184.802 125.03 185.897 125.03 187.004Z" fill="#E3E2DB"/>
<path d="M124.845 221.254C124.845 223.489 124.182 225.632 123.002 227.211C121.822 228.791 120.222 229.679 118.554 229.679C116.885 229.679 115.285 228.791 114.105 227.211C112.925 225.632 112.262 223.489 112.262 221.254C112.262 220.148 112.425 219.052 112.741 218.03C113.057 217.008 113.521 216.079 114.105 215.297C114.689 214.515 115.383 213.894 116.146 213.471C116.909 213.048 117.727 212.83 118.554 212.83C119.38 212.83 120.198 213.048 120.961 213.471C121.724 213.894 122.418 214.515 123.002 215.297C123.586 216.079 124.05 217.008 124.366 218.03C124.682 219.052 124.845 220.148 124.845 221.254Z" fill="#E3E2DB"/>
</g>
<defs>
<linearGradient id="paint0_linear_449_1319" x1="146.05" y1="131.832" x2="294.444" y2="131.832" gradientUnits="userSpaceOnUse">
<stop stop-color="#D8BB00"/>
<stop offset="1" stop-color="#67F5FA"/>
</linearGradient>
<clipPath id="clip0_449_1319">
<rect width="294.444" height="230.045" fill="white"/>
</clipPath>
</defs>
</svg>
